<?xml version="1.0" encoding="UTF-8"?>
<svg xmlns="http://www.w3.org/2000/svg" viewBox="0 0 227.62 153.33">
  <defs>
    <style>
      .cls-1 {
        fill: #fff;
      }

      .cls-2 {
        fill: #000000;
      }
    </style>
  </defs>
  <g id="Layer_1" data-name="Layer 1">
    <path class="cls-1" d="m20.93,114.62c1.14-7.13,2.37-14.38,1.85-21.62-.24-3.37-.88-6.71-1.04-10.09-.08-1.66-.03-3.33.1-4.99.07-.87.15-1.74.25-2.6.04-.32.08-.63.11-.95.08-.6.08-.63,0-.09.03-.24.06-.47.1-.71.51-3.66,1.11-7.33,1.28-11.03s-.24-7.01-.81-10.49c-.54-3.23-1.29-6.41-1.89-9.63-.15-.82-.3-1.63-.42-2.45-.05-.3-.09-.59-.13-.89.16,1.17-.02-.3-.04-.45-.16-1.62-.24-3.25-.16-4.88.01-.3.03-.59.05-.89.02-.3.05-.59.08-.89-.09.59-.08.59,0,0,.17-.9.37-1.79.61-2.67.56-2.08,1.11-4.09,1.38-6.23.48-3.9-.53-7.97-3.37-10.79-1.86-1.84-5.24-2-7.07,0s-1.87,4.99,0,7.07l.24.27c.35.42.31.36-.12-.17.21.12.46.68.58.89.18.3.33.62.5.93.58,1.04-.34-1.03.06.1.52,1.49.92,2.99,1.24,4.53.59,2.89.96,5.86,1.96,8.65,1.3,3.62,3.41,6.45,5.9,9.35.52.61,1.04,1.23,1.55,1.85-.76-.92.07.1.19.26.23.33.45.66.66,1s.39.7.59,1.05c.68,1.17-.23-.87.19.41.32.97.61,1.94.84,2.94.78,3.41,1.34,6.75,2.64,10.03.73,1.85,1.54,3.66,2.31,5.49-.46-1.09.08.22.14.36.16.39.31.78.46,1.17.29.78.57,1.57.81,2.37s.4,1.61.59,2.41c.32,1.31-.04-1.04.06.31.03.44.07.87.08,1.31.07,2.31,0,4.63.72,6.86.59,1.8,1.49,3.48,2.29,5.19.14.29.86,1.3.15.3.19.26.28.76.39,1.07.28.84.52,1.7.73,2.56.82,3.36,1.18,6.81,1.94,10.19.91,4.05,2.54,7.71,5.16,10.95,1.33,1.64,4.34,1.89,6.06.78,1.87-1.2,2.91-3.44,2.3-5.65-.24-.88-.47-1.77-.65-2.66-.09-.45-.17-.9-.25-1.35-.02-.14-.2-1.63-.08-.48-.21-1.97-.3-3.94-.22-5.92.04-.91.12-1.82.21-2.73.15-1.49-.2.99.08-.48.06-.3.1-.6.16-.9.38-1.97.93-3.9,1.59-5.8,1.22-3.54,2.74-6.96,3.81-10.55,1.18-3.94,1.94-8.1,2.03-12.22.08-3.88-.51-7.84-1.8-11.5s-2.98-6.92-4.53-10.35c-.18-.4-.36-.79-.53-1.19.45,1.05-.11-.28-.16-.41-.32-.81-.61-1.63-.87-2.46-.27-.88-.51-1.77-.71-2.67-.1-.45-.19-.9-.27-1.35-.04-.19-.31-2.07-.17-.93-.47-3.67-.47-7.38-.43-11.07.1-7.65,1.47-18.7-7.6-21.86-2.47-.86-5.58.98-6.15,3.49-.64,2.79.84,5.23,3.49,6.15l-.62-.28c.18.09.35.18.52.29l-.55-.43c.15.13.29.27.42.41l-.41-.55c.12.16.22.33.32.51.57,1-.13.05.02-.06-.03.02.4,1.37.44,1.56l.06.32c.09.55.08.44-.03-.34-.09.08.1,1.15.11,1.31.18,3.53-.02,7.09-.05,10.63-.03,3.92.12,7.81.68,11.69s1.74,7.48,3.3,11.08c.63,1.47,1.32,2.91,2,4.36.37.79.74,1.58,1.09,2.37.12.26.23.53.35.8-.46-1.05.24.63.31.81.57,1.5,1.05,3.04,1.37,4.61.09.45.17.9.24,1.35-.17-1.14.02.35.03.49.09,1.06.12,2.13.09,3.2-.02.76-.06,1.53-.13,2.29-.04.46-.09.92-.15,1.37.15-1.14-.08.37-.1.5-.32,1.82-.76,3.63-1.29,5.4-1.08,3.59-2.59,7.01-3.81,10.55-2.85,8.25-3.18,17.21-.84,25.63l8.36-4.86c.79.98.01,0-.12-.18-.21-.31-.4-.62-.58-.94s-.35-.64-.52-.97c-.14-.29-.78-1.16-.09-.15-.38-.55-.53-1.46-.72-2.1-.25-.84-.46-1.7-.64-2.55-.65-3.01-1.01-6.07-1.69-9.07-.33-1.49-.75-2.95-1.3-4.38-.4-1.05-.86-2.08-1.34-3.09-.19-.4-.39-.79-.58-1.19-.1-.21-.61-1.4-.21-.4-.16-.4-.31-.81-.43-1.23-.04-.14-.27-1.51-.15-.46-.1-.95-.06-1.9-.07-2.85-.03-2.14-.33-4.3-.87-6.37-.39-1.48-.92-2.92-1.49-4.34-.43-1.05-.87-2.1-1.32-3.14-.17-.39-.33-.78-.5-1.17-.11-.26-.22-.52-.33-.78.23.54.23.55.01.02-1.31-3.26-2.06-6.52-2.77-9.95-.42-2.02-1.01-3.93-1.85-5.81s-2.07-3.52-3.36-5.12c-.92-1.15-1.89-2.27-2.85-3.38-.87-1.01.56.84-.21-.25-.23-.33-.47-.65-.68-.99s-.42-.68-.61-1.03c-.14-.26-.99-1.6-.26-.45-.84-1.33-1.08-3.43-1.39-4.95s-.58-3.16-.91-4.74c-.82-3.92-2.28-7.58-4.99-10.59l-7.07,7.07.26.26c.36.41.32.36-.12-.16-.05.05.37.51.35.63l-.22-.53c.08.23.15.46.21.7.03.12.1.68.15.72l-.09-.59c.02.25.03.5.04.75,0,.25,0,.5-.01.75,0,.02-.16,1.19-.04.53.04-.36.02-.28-.06.24-.06.3-.13.6-.2.9-.79,3.27-1.72,6.37-1.93,9.76-.4,6.54,1.4,13.02,2.61,19.39.13.67.25,1.35.36,2.02.07.45.14.9.21,1.35-.15-.95-.02-.17,0,.02.18,1.68.31,3.35.29,5.03-.02,1.58-.13,3.17-.3,4.74-.08.79-.18,1.58-.28,2.37.03-.21.13-.92-.01.09-.08.55-.15,1.1-.23,1.65-.49,3.5-1.03,7.02-1.1,10.56-.06,3.3.43,6.56.81,9.83.43,3.71.47,7.41.17,11.12-.07.89-.16,1.77-.26,2.66-.05.48-.12.97-.17,1.45-.13,1.1.09-.6-.08.6-.28,1.93-.58,3.85-.89,5.77-.41,2.57.66,5.51,3.49,6.15,2.4.55,5.71-.73,6.15-3.49h0Z"/>
    <path class="cls-1" d="m61.27,95.68c.9,5.81,1.16,12.1,5,16.86,2.61,3.24,7.4,4.83,11.16,2.6,1.64-.98,2.83-2.53,3.9-4.08.92-1.34,1.58-2.81,2.19-4.31,1.22-3.01,1.71-6.45,1.38-9.68l-9.82,1.33c.73,4.19,1.92,8.28,3.54,12.21.52,1.26,1.08,2.27,2.3,2.99,1.07.63,2.65.89,3.85.5s2.38-1.14,2.99-2.3,1-2.64.5-3.85c-1.62-3.93-2.81-8.02-3.54-12.21-.2-1.12-1.32-2.47-2.3-2.99s-2.05-.75-3.19-.59c-2.25.3-4.59,2.43-4.34,4.91.14,1.33.12,2.64-.04,3.97l.18-1.33c-.13.94-.32,1.87-.59,2.78-.14.45-.3.9-.47,1.34-.31.82.39-.83.11-.28-.11.21-.2.43-.31.64-.41.81-.9,1.55-1.42,2.29-.35.5.73-.86.18-.25-.14.16-.31.32-.45.49-.36.44,1-.63.29-.21-.75.44,1.12-.33.22-.15l1.33-.18c-.27.03-.51.03-.78,0l1.33.18c-.17-.02-.35-.06-.51-.1-.49-.16-.34-.09.45.21-.16-.08-.32-.17-.47-.27-.43-.29-.3-.2.37.3-.14-.25-.53-.52-.73-.73-.33-.39-.22-.26.31.41-.1-.14-.19-.28-.28-.42-.18-.29-.33-.6-.5-.9-.41-.75.45,1.25,0,0-.24-.66-.43-1.34-.59-2.03-.75-3.21-1.1-6.55-1.61-9.81-.18-1.16-1.33-2.42-2.3-2.99-1.07-.63-2.65-.89-3.85-.5s-2.38,1.14-2.99,2.3c-.67,1.26-.72,2.45-.5,3.85h0Z"/>
    <path class="cls-1" d="m83.3,36.65c.39,1.05.72,2.11.97,3.2.12.51.2,1.02.3,1.53.04.21.11.97,0,0,.03.3.07.59.09.89.2,2.24.16,4.5,0,6.75-.08,1.13-.2,2.25-.34,3.37-.04.3-.08.61-.11.91-.07.59,0-.03.02-.13-.1.72-.2,1.44-.31,2.17-.39,2.69-.79,5.37-1.06,8.08-.5,5.09-.15,10.08.92,15.08,1.01,4.69,2.52,9.27,3.44,13.98.24,1.25.45,2.5.64,3.76.15,1,.05.3.02.09.05.39.1.79.15,1.18.08.63.15,1.26.21,1.9.29,2.77.5,5.55.71,8.32.2,2.6,2.16,5.13,5,5,2.54-.11,5.21-2.21,5-5-.39-5.13-.82-10.25-1.63-15.33-.76-4.77-2.15-9.37-3.31-14.04-.28-1.14-.55-2.29-.78-3.44-.11-.54-.21-1.08-.3-1.62-.05-.31-.1-.62-.14-.93.11.74.02.07-.02-.3-.25-2.48-.22-4.97-.02-7.45.09-1.13.21-2.25.35-3.38.04-.32.08-.64.12-.96-.03.22-.13.9.02-.12.09-.64.18-1.28.28-1.93.38-2.62.77-5.23,1.02-7.87.52-5.46.34-11.19-1.61-16.37-.92-2.44-3.42-4.38-6.15-3.49-2.38.77-4.48,3.53-3.49,6.15h0Z"/>
    <path class="cls-1" d="m96.34,42.49c.27,1.05.5,2.1.68,3.16.05.3.1.61.14.91-.03-.21-.1-.95,0,.05.06.61.12,1.23.15,1.84.13,2.3.06,4.63-.23,6.92.12-.94-.09.44-.14.73-.1.53-.2,1.06-.32,1.58-.28,1.24-.63,2.47-.96,3.69-.66,2.44-1.18,4.87-1.42,7.4-.82,8.54,2.41,16.82,4.43,24.97.28,1.14.54,2.28.77,3.43.1.54.2,1.08.29,1.62.03.17.16,1.03.06.35-.11-.74.06.53.06.55.11,1.08.18,2.16.18,3.24,0,.61-.02,1.22-.06,1.82-.02.37-.25,2.11-.07.9-.38,2.58.64,5.5,3.49,6.15,2.38.54,5.74-.73,6.15-3.49.72-4.81.43-9.43-.54-14.2-.84-4.16-2.14-8.21-3.21-12.31-.54-2.07-1.03-4.15-1.37-6.26-.03-.17-.16-1.03-.06-.35.1.64,0-.04-.02-.14-.06-.54-.11-1.08-.15-1.62-.07-1.08-.1-2.16-.05-3.24.02-.47.05-.95.1-1.42.02-.19,0-.43.07-.61-.32,1-.05.33.01.05.27-1.25.53-2.48.87-3.71.61-2.28,1.25-4.54,1.6-6.88.91-5.96.7-11.92-.8-17.78-.65-2.54-3.62-4.31-6.15-3.49s-4.18,3.43-3.49,6.15h0Z"/>
    <path class="cls-1" d="m111.89,86.85c-.16,6.44-.33,14.18,3.82,19.55,1.43,1.85,3.6,3.22,6.01,3.21s4.41-1.1,5.99-2.78c2.71-2.89,4.09-6.42,4.5-10.32l-9.32,2.52c.7,1.51,1.39,3.01,2.09,4.52.99,2.14,2.22,3.96,4.64,4.66,4.11,1.18,8.15-2,10.4-5.09,4.03-5.53,2.72-12.35,3.3-18.69.24-2.61-2.47-5.11-5-5-2.91.13-4.74,2.2-5,5-.24,2.57-.07,5.14-.16,7.72-.02.61-.09,1.21-.12,1.82-.03.68.18-.84,0-.02-.05.25-.09.5-.15.75-.1.45-.22.9-.37,1.33-.06.18-.42,1.02-.07.27s-.08.15-.13.24c-.21.41-.43.8-.69,1.18-.31.47-.56.32.15-.18-.15.1-.27.31-.4.44-.17.18-.36.33-.54.5-.42.4.94-.59.19-.18-.17.09-.34.19-.51.29-.88.5.82-.29.22-.1-.38.11-.2.09.52-.05l3.13,1.72c-.04-.22-.25-.49-.35-.7-.26-.56-.52-1.13-.78-1.69-.58-1.26-1.16-2.51-1.74-3.77-.88-1.91-3.7-2.93-5.65-2.3-2.26.73-3.43,2.53-3.67,4.82.06-.55.14-.82,0-.11-.05.23-.1.46-.16.69-.08.28-.17.56-.26.84-.2.68.12-.01.11-.22.02.36-.55,1.07-.75,1.39-.14.23-.29.54-.5.73.22-.2.55-.65.11-.2-.19.2-.41.39-.59.6-.2.18-.16.15.12-.09.15-.16.33-.27.55-.32.55-.24,1.21-.26,1.79-.09.19.05.99.51.42.15.56.47.71.57.44.3-.18-.19-.15-.14.08.15.46.71-.11-.19-.16-.27-.07-.12-.18-.48-.3-.56l.23.57c-.07-.17-.14-.35-.2-.53-.39-1.06-.69-2.14-.9-3.25-.05-.25-.09-.49-.13-.74-.17-1.04.15-.12,0,.02.11-.11-.14-1.54-.16-1.7-.16-2.34-.11-4.69-.05-7.04.07-2.62-2.35-5.12-5-5s-4.93,2.2-5,5h0Z"/>
    <path class="cls-1" d="m141.1,87.1c-.71,4.35-.72,8.54.04,12.89.33,1.87.8,3.74,1.72,5.42,1.35,2.48,3.88,4.12,6.71,4.26,5.21.26,8.66-4.25,10.21-8.68.62-1.77.89-3.74.9-5.61s-.21-4.08-.91-5.92c-.93-2.44-2.53-4.53-4.87-5.78-1.98-1.06-4.32-1.67-6.57-1.46-1.35.12-2.55.47-3.54,1.46-.87.87-1.52,2.29-1.46,3.54.11,2.5,2.21,5.26,5,5,.56-.05,1.11-.04,1.67.02l-1.33-.18c.32.05.63.1.94.19.15.04.31.09.46.14.48.18.3.1-.53-.24.25.17.56.31.83.46.76.44-.97-.87-.19-.12.09.08.17.16.25.25.33.38.21.23-.34-.46.09.13.17.26.25.4.21.41.16.27-.14-.42-.06.13.3,1.01.34,1.19.08.38.14.76.2,1.14l-.18-1.33c.17,1.32.17,2.63,0,3.94l.18-1.33c-.11.74-.27,1.47-.5,2.19-.06.18-.12.35-.19.53-.19.49-.13.35.18-.42-.19.22-.3.61-.45.87s-.44.55-.52.82c.52-.65.61-.77.29-.37-.12.14-.24.27-.37.39-.38.34-.25.26.4-.26-.15.1-.3.2-.45.29.79-.3.94-.36.45-.19-.17.05-.35.09-.53.12l1.33-.18c-.28.03-.52.03-.8.02l1.33.18c-.18-.02-.35-.05-.52-.11.79.37.97.44.53.2.69.57.85.69.48.35l-.15-.17c.53.72.65.87.38.45-.08-.14-.16-.28-.23-.42-.44-.78.45,1.24.1.18-.45-1.38-.7-2.84-.9-4.28l.18,1.33c-.34-2.67-.33-5.34.01-8.01l-.18,1.33c.04-.32.09-.64.14-.95.22-1.37.22-2.61-.5-3.85-.61-1.04-1.8-2.03-2.99-2.3-2.41-.55-5.7.73-6.15,3.49h0Z"/>
    <path class="cls-1" d="m156.18,88.88c.44,2.62,1.57,5.06,2.64,7.47.23.53.48,1.06.7,1.6l-.28-.66c.07.18.15.36.22.54.11.27.21.54.3.81.39,1.08.68,2.18.85,3.31l-.18-1.33c.04.29.06.57.09.86l6.33-4.82.87.36,1.79,1.79c-.42-.61.3,1.19.22.48-.02-.22-.1-.44-.15-.66-.12-.55-.24-1.1-.35-1.66-.21-1.05-.4-2.11-.55-3.17l.18,1.33c-.29-2.22-.4-4.45-.12-6.67l-.18,1.33c.07-.5.16-.99.27-1.48.05-.2.1-.41.16-.61s.34-.9,0-.07-.1.24,0,.07c.44-.69-.18.2-.32.37.42-.48-.46.31-.52.36.64-.44-1.18.36-.39.19,2.56-.53,4.29-3.69,3.49-6.15-.88-2.71-3.4-4.06-6.15-3.49-2.89.6-4.7,3.11-5.64,5.73-.77,2.14-.93,4.65-.89,6.91.04,2.41.41,4.82.85,7.18.19,1,.39,1.99.62,2.98.47,2.03,1.96,4.11,4.13,4.51,1.62.3,3.03.13,4.36-.89,1.16-.9,2.09-2.38,1.97-3.93-.25-3.29-1.29-6.1-2.59-9.1-.23-.53-.47-1.06-.7-1.6-.08-.18-.16-.36-.23-.53.29.7.37.88.22.53-.13-.31-.26-.63-.38-.94-.44-1.17-.8-2.36-1.01-3.6-.2-1.16-1.32-2.42-2.3-2.99-1.07-.63-2.65-.89-3.85-.5-2.79.9-3.96,3.38-3.49,6.15h0Z"/>
    <path class="cls-1" d="m169.59,43.17c.12.5.2,1.01.3,1.52.12.58-.02-.16-.03-.24.03.29.06.59.09.88.09,1.11.12,2.22.11,3.33-.01,2.09-.15,4.18-.21,6.27-.14,4.87.39,9.5,2.38,13.98.42.95.89,1.89,1.33,2.84.08.18.31.88.02.04.07.21.16.42.23.63.19.57.35,1.14.46,1.73.03.15.14,1.08.08.44-.06-.59,0,.16,0,.23.02.53.06,1.05.07,1.58.02,1.14-.02,2.27-.03,3.41-.03,2.35.11,4.71.62,7.01.45,2.02,1.23,3.94,2.03,5.84.47,1.12.95,2.24,1.44,3.35.23.53-.1-.24-.12-.28.15.29.25.62.37.92.19.49.38.98.55,1.47.34.97.63,1.97.82,2.98,0,.04.1.57.1.57-.08-.63-.1-.76-.06-.38.01.13.02.25.03.38.04.58.03,1.16,0,1.74-.15,2.62,2.41,5.12,5,5,2.84-.13,4.83-2.2,5-5,.26-4.48-1.39-8.6-3.13-12.63-.18-.43-.37-.85-.56-1.28-.15-.35-.58-1.39-.2-.46-.37-.92-.74-1.84-1.05-2.79-.28-.87-.52-1.76-.69-2.66-.04-.19-.07-.39-.1-.58.14.97.03.18.03-.02-.02-.6-.07-1.21-.07-1.81-.03-2.19.14-4.39-.05-6.57-.25-2.86-.96-5.28-2.14-7.89-.43-.95-.91-1.88-1.33-2.84.37.86-.13-.4-.22-.67-.18-.56-.33-1.12-.46-1.69-.07-.34-.29-1.62-.15-.61-.07-.51-.11-1.02-.14-1.53-.07-1.1-.09-2.21-.07-3.32.07-5.23.58-10.37-.6-15.54-.58-2.55-3.66-4.3-6.15-3.49-2.67.86-4.12,3.42-3.49,6.15h0Z"/>
    <path class="cls-1" d="m205.73,87.03c.58-4.56-.64-9.58-3.26-13.36-1.72-2.48-4.39-4.81-7.63-4.62-3.47.2-5.97,2.47-7.09,5.68-1.61,4.63-.3,10.28.66,14.9.9,4.34,2.22,8.6,5.11,12.06,2.31,2.77,6.07,4.86,9.58,2.85,2.82-1.61,4.55-4.58,5.73-7.48.98-2.43-1.07-5.6-3.49-6.15-2.9-.66-5.1.89-6.15,3.49.46-1.13-.32.44-.42.65-.45.87.53-.45-.21.31-.27.27-.65.56-.87.88,3.99.42,5.24.23,3.76-.6.53.42.58.44.16.08-.25-.27-.52-.54-.78-.81-.68-.7.47.74-.22-.33-.35-.54-1.09-1.49-1.14-2.16.26.61.28.65.08.13-.07-.18-.13-.36-.19-.54-.15-.43-.28-.86-.4-1.29-.23-.81-.43-1.62-.61-2.44-.2-.9-.38-1.8-.56-2.7-.11-.54-.21-1.08-.3-1.63-.04-.2-.27-1.83-.14-.77-.14-1.09-.22-2.18-.23-3.28,0-.47.04-.94.03-1.41-.02-1.4-.28.85-.01-.14.09-.33.63-1.72.04-.38l.17-.27c-.22.4-.52.72-.91.95-.84.51-1.87.48-2.72.04.46.29.43.25-.09-.12.19.18.37.36.54.56l-.31-.41c.16.22.3.45.45.68.21.35.41.7.6,1.06.12.24.24.49.35.73-.24-.57-.26-.59-.05-.06.12.39.25.77.36,1.17.12.46.2.93.3,1.39.06.37.05.27-.04-.32.03.27.05.54.06.81.05.95,0,1.9-.13,2.84-.33,2.6,2.54,5.11,5,5,2.99-.13,4.64-2.21,5-5h0Z"/>
    <path class="cls-1" d="m193.87,38.19c1.32,5,3.43,9.73,5.27,14.55.91,2.39,1.75,4.8,2.38,7.28.31,1.23.56,2.47.74,3.72-.15-1.09.02.39.05.77.05.74.07,1.49.07,2.24-.05,5.63-1.51,11.13-.81,16.78.65,5.23,2.41,10.05,4.4,14.91,1.04,2.54,2.11,5.06,3,7.66.46,1.35.88,2.71,1.21,4.1.16.66.3,1.32.42,1.98.05.27.09.53.13.8.06.37.04.27-.04-.32.03.27.06.54.08.81.25,2.6,2.12,5.13,5,5,2.49-.11,5.27-2.21,5-5-.52-5.34-2.14-10.26-4.15-15.21-1.87-4.59-3.92-9.18-4.91-14.06-.1-.51-.25-1.07-.28-1.59.05,1.15.04.22,0-.08-.03-.34-.06-.67-.08-1.01-.08-1.41-.04-2.83.06-4.24.22-2.96.71-5.89.88-8.85.32-5.59-.91-11.11-2.78-16.34-1.98-5.53-4.51-10.86-6.01-16.56-.67-2.53-3.6-4.32-6.15-3.49s-4.21,3.44-3.49,6.15h0Z"/>
    <path class="cls-1" d="m198.28,94.73l2.77.74c.33.1.66.12,1,.04.33-.02.64-.11.93-.3.29-.16.53-.37.7-.64.22-.24.37-.52.45-.85l.09-.66c0-.45-.12-.87-.34-1.26-.35-.55-.85-.98-1.49-1.15l-2.77-.74c-.33-.1-.66-.12-1-.04-.33.02-.64.11-.93.3-.29.16-.53.37-.7.64-.22.24-.37.52-.45.85l-.09.66c0,.45.12.87.34,1.26.35.55.85.98,1.49,1.15h0Z"/>
    <path class="cls-1" d="m204.59,93.72c-.12-.95-.11-1.91.02-2.86l-.09.66c.06-.45.15-.89.27-1.33.17-.63.08-1.36-.25-1.93-.3-.52-.9-1.01-1.49-1.15-.64-.15-1.36-.11-1.93.25s-.98.85-1.15,1.49c-.41,1.56-.57,3.24-.37,4.85-.01.34.06.67.22.96.1.31.27.58.52.8.43.43,1.15.76,1.77.73s1.32-.24,1.77-.73c.42-.45.81-1.13.73-1.77h0Z"/>
    <path class="cls-1" d="m206.16,96.21c-.13-.52-.24-1.04-.31-1.57l.09.66c-.15-1.15-.15-2.31,0-3.46l-.09.66c.11-.8.3-1.58.55-2.34.41-1.24-.48-2.79-1.75-3.08-1.38-.31-2.63.42-3.08,1.75-.93,2.79-.98,5.86-.24,8.7.33,1.27,1.8,2.16,3.08,1.75s2.1-1.72,1.75-3.08h0Z"/>
  </g>
  <g id="Layer_2" data-name="Layer 2">
    <path class="cls-2" d="m18.52,114.04c1.11-6.91,2.27-13.93,1.76-20.96-.24-3.37-.88-6.71-1.04-10.09s.2-6.7.66-10.01,1.03-6.89,1.19-10.37-.18-6.57-.72-9.82c-1.04-6.29-3.03-12.53-2.73-18.97s5.15-14.1-.5-19.7c-2.3-2.28-5.68,1.15-3.54,3.54,1.9,2.11,2.59,4.93,3.14,7.64.59,2.89.96,5.86,1.96,8.65,1.14,3.18,3.08,5.71,5.25,8.24.99,1.16,1.99,2.31,2.79,3.61.95,1.55,1.46,3.24,1.86,5,.78,3.41,1.34,6.75,2.64,10.03s2.76,6.16,3.73,9.39c.46,1.54.77,3.09.82,4.7.07,2.1-.03,4.17.63,6.2.52,1.6,1.33,3.08,2.04,4.59s1.14,2.98,1.52,4.53c1.69,6.94,1.75,14.22,6.46,20.03,1.63,2.01,4.8-.17,4.18-2.43-2-7.21-1.59-14.6.84-21.64,1.22-3.54,2.74-6.96,3.81-10.55s1.85-7.65,1.94-11.55c.08-3.68-.48-7.37-1.71-10.83s-2.82-6.52-4.28-9.75-2.56-6.7-3.04-10.28-.47-7.39-.43-11.07c.05-3.9.37-7.9-.21-11.77-.51-3.4-2.16-6.5-5.55-7.68-1.28-.44-2.73.51-3.08,1.75-.38,1.38.47,2.63,1.75,3.08,1.6.56,2.03,3.36,2.13,5.16.18,3.53-.02,7.09-.05,10.63s.08,7.37.59,11.03,1.58,7.09,3.05,10.49c1.29,3,2.85,5.88,4,8.94,1.27,3.34,1.91,6.74,1.83,10.32-.16,7.38-3.21,13.93-5.57,20.77-2.71,7.85-3.06,16.28-.84,24.3l4.18-2.43c-3.78-4.66-3.74-11.47-5-17.07-.33-1.49-.74-2.96-1.3-4.38-.63-1.6-1.48-3.09-2.14-4.68-.72-1.72-.71-3.38-.74-5.21-.03-1.93-.29-3.85-.79-5.71-.86-3.26-2.36-6.3-3.63-9.41s-2.06-6.53-2.77-9.95c-.78-3.72-2.19-6.87-4.57-9.83-1.86-2.32-4.08-4.42-5.26-7.2-1.3-3.05-1.62-6.47-2.29-9.69-.73-3.49-1.93-6.8-4.35-9.49l-3.54,3.54c1.74,1.73,1.43,4.44.91,6.62-.73,3.05-1.65,5.94-1.84,9.1-.39,6.33,1.36,12.56,2.53,18.72.57,3.01.98,6.02.95,9.09s-.48,6.36-.92,9.52-.94,6.58-1.01,9.9.43,6.56.81,9.83c.87,7.5-.13,14.87-1.32,22.27-.21,1.33.34,2.69,1.75,3.08,1.19.33,2.86-.41,3.08-1.75h0Z"/>
    <path class="cls-2" d="m63.68,95.11c.44,2.88.82,5.77,1.36,8.63.49,2.58,1.34,5.05,2.99,7.12,1.89,2.36,5.3,3.89,8.13,2.2,1.26-.75,2.18-2,3-3.18s1.41-2.41,1.94-3.72c1.15-2.82,1.6-5.98,1.29-9.01l-4.91.66c.73,4.19,1.92,8.28,3.54,12.21.52,1.25,1.66,2.14,3.08,1.75,1.18-.32,2.26-1.82,1.75-3.08-1.62-3.93-2.81-8.02-3.54-12.21-.21-1.21-1.62-1.96-2.74-1.79s-2.3,1.2-2.17,2.46c.28,2.71-.06,5.32-1.09,7.61-.47,1.05-1.27,2.41-1.83,3.12-.22.27-.45.55-.71.78.25-.22-.6.21-.24.14.45-.1-.41-.05.04.02-.17-.04-.34-.08-.51-.14.18.08.14.05-.14-.09-.47-.3-.62-.44-1.1-.97-.19-.23-.22-.26-.08-.1-.1-.14-.19-.28-.28-.42-.18-.29-.33-.59-.5-.9-.23-.42.03.14-.16-.35-.12-.33-.24-.66-.34-.99-.18-.59-.33-1.19-.46-1.8-.65-3.06-1.01-6.2-1.49-9.29-.21-1.34-1.88-2.07-3.08-1.75-1.43.39-1.95,1.74-1.75,3.08h0Z"/>
    <path class="cls-2" d="m85.71,36.07c3.34,8.87.55,18.36-.34,27.41-.48,4.87-.2,9.64.84,14.42s2.52,9.27,3.44,13.98c1.02,5.25,1.41,10.59,1.82,15.92.1,1.35,1.08,2.5,2.5,2.5,1.27,0,2.6-1.15,2.5-2.5-.37-4.9-.76-9.81-1.54-14.66s-2.15-9.37-3.31-14.04-1.75-9.47-1.35-14.4,1.34-9.48,1.79-14.25c.5-5.26.36-10.71-1.52-15.7-.48-1.26-1.69-2.13-3.08-1.75-1.21.33-2.22,1.81-1.75,3.08h0Z"/>
    <path class="cls-2" d="m98.75,41.92c1.12,4.41,1.44,9.02.83,13.54s-2.41,8.82-2.85,13.4c-.8,8.32,2.37,16.37,4.34,24.3,1.07,4.29,1.89,8.81,1.22,13.24-.2,1.33.33,2.69,1.75,3.08,1.18.32,2.87-.4,3.08-1.75,1.3-8.69-1.57-16.88-3.75-25.18-1.05-4.02-1.91-8.1-1.74-12.28.19-4.54,2.06-8.78,2.73-13.24.83-5.5.58-11.05-.8-16.45-.79-3.12-5.62-1.8-4.82,1.33h0Z"/>
    <path class="cls-2" d="m114.39,86.94c-.08,3.04-.13,6.09.25,9.11s1.06,6.46,3.03,8.93c.99,1.25,2.41,2.2,4.05,2.23s3.1-.86,4.22-2.05c2.23-2.38,3.43-5.34,3.77-8.55l-4.66,1.26c.7,1.51,1.39,3.01,2.09,4.52s1.39,3.04,3.15,3.51c2.95.79,5.97-1.75,7.57-3.94,3.75-5.11,2.42-11.56,2.96-17.43.12-1.35-1.24-2.5-2.5-2.5-1.45,0-2.38,1.15-2.5,2.5-.4,4.34.66,9.43-1.33,13.37-.39.76-.8,1.4-1.33,1.94-.32.33-.57.54-.86.71-.25.15-.81.33-.89.44-.16.05-.21.06-.14.04l.97.48s-.33-.65-.35-.7c-.26-.56-.52-1.13-.78-1.69-.58-1.26-1.16-2.51-1.74-3.77-.46-.99-1.83-1.42-2.82-1.15-1.14.31-1.72,1.3-1.84,2.41-.19,1.77-.99,3.57-2.18,4.89-.21.23-.5.55-.73.71.17-.13.33.32-.02-.07s-.81-1.16-1.05-1.82c-1.59-4.27-1.45-8.88-1.34-13.36.08-3.22-4.92-3.22-5,0h0Z"/>
    <path class="cls-2" d="m143.51,87.85c-.63,3.86-.64,7.7.04,11.56.6,3.42,1.91,7.56,6.01,7.85s6.63-3.51,7.8-6.84c1.1-3.12,1.19-7.09-.01-10.2-1.4-3.62-5.19-5.76-9.03-5.4-1.34.12-2.5,1.06-2.5,2.5,0,1.26,1.15,2.62,2.5,2.5.24-.02.48-.04.71-.04.16,0,.32.01.48.01.02,0,.42.04.14,0-.2-.03.38.08.49.11.27.07.54.15.8.25-.38-.15.26.15.37.21s.56.37.43.27c-.12-.1.36.35.44.43.01.01.25.31.1.11-.14-.19.11.19.14.23,1.03,1.73.92,4.54.51,6.33-.29,1.25-.58,1.99-1.22,3.02-.28.44-.4.61-.88,1.07-.16.15-.55.38-.8.44-.06.01-.14,0-.19,0-.32-.05-.02.03,0,.03-.07,0-.4-.29-.06,0-.11-.09-.42-.5-.21-.19-.15-.23-.29-.47-.4-.72s0,0,.02.04c-.05-.15-.11-.31-.16-.46-.07-.23-.13-.46-.19-.69-.19-.73-.34-1.46-.47-2.2-.49-2.82-.5-6.08-.04-8.9.22-1.33-.35-2.69-1.75-3.08-1.19-.33-2.86.41-3.08,1.75h0Z"/>
    <path class="cls-2" d="m158.59,88.31c.42,2.51,1.48,4.83,2.5,7.14.82,1.85,1.78,4.22,1.92,6.12l3.16-2.41.28.11.9.9c-.15-.23-.15-.22,0,.05-.05-.22-.1-.44-.15-.66-.07-.33-.14-.66-.21-.99-.16-.77-.32-1.55-.46-2.33-.25-1.44-.42-2.89-.46-4.36s.04-2.9.38-4.31c.06-.23.13-.45.19-.67.1-.28.11-.3.01-.06.07-.14.14-.28.22-.41l.12-.19c-.16.21-.15.21.04,0-.23.16-.22.16.02.02-.27.11-.26.13.02.05,1.32-.27,2.09-1.83,1.75-3.08-.38-1.37-1.75-2.02-3.08-1.75-4.28.89-4.75,6.76-4.69,10.23.04,2.19.36,4.37.76,6.52.37,1.95.55,5.3,3.01,5.75,1.47.27,3.3-.66,3.16-2.41-.4-5.36-3.74-9.47-4.6-14.58-.22-1.33-1.87-2.08-3.08-1.75-1.41.39-1.97,1.74-1.75,3.08h0Z"/>
    <path class="cls-2" d="m172,42.6c.93,4.07.48,8.29.35,12.43-.13,4.4.24,8.65,2.04,12.71.85,1.93,1.88,3.74,2.29,5.83s.24,4.23.21,6.32c-.05,4.25.79,7.99,2.43,11.89s3.58,7.53,3.33,11.71c-.19,3.21,4.81,3.2,5,0,.47-7.97-5.66-14.34-5.77-22.23-.03-2.19.14-4.39-.05-6.57-.21-2.36-.83-4.47-1.8-6.63-.87-1.92-1.8-3.72-2.25-5.8s-.48-4.07-.46-6.11c.07-4.99.62-9.95-.51-14.87-.72-3.14-5.54-1.81-4.82,1.33h0Z"/>
    <path class="cls-2" d="m203.23,87.12c.53-4.16-.5-8.65-2.92-12.09-1.26-1.79-3.13-3.48-5.47-3.38s-3.94,1.77-4.67,3.84-.64,4.31-.47,6.39c.2,2.42.64,4.81,1.13,7.18.81,3.89,1.88,7.84,4.47,10.96,1.56,1.89,4.03,3.82,6.55,2.46,2.22-1.2,3.67-3.74,4.58-5.99.51-1.25-.55-2.75-1.75-3.08-1.43-.39-2.57.49-3.08,1.75-.3.74-.75,1.45-1.27,2.06-.07.08-.89.77-.87.88,1.1.16,1.35.1.73-.2-.12-.1-.23-.21-.35-.31-1.14-1.01-1.95-2.4-2.53-3.8-1.36-3.24-2.01-7.03-2.47-10.5-.23-1.76-.44-3.76-.13-5.49.07-.39.28-1.07.45-1.2-.18.15-.33-.07-.2.04.34.29.66.46.96.83,2.15,2.68,2.74,6.35,2.32,9.67-.17,1.34,1.27,2.5,2.5,2.5,1.49,0,2.33-1.15,2.5-2.5h0Z"/>
    <path class="cls-2" d="m196.28,37.62c2.57,9.75,8.67,18.89,8.58,29.23-.05,5.63-1.53,11.14-.81,16.78.64,4.98,2.41,9.63,4.31,14.24,2.07,5.04,4.37,10.21,4.9,15.69.13,1.34,1.06,2.5,2.5,2.5,1.25,0,2.63-1.15,2.5-2.5-.99-10.17-6.98-18.72-8.97-28.61-1.11-5.5.19-10.93.5-16.43s-.89-10.63-2.69-15.68c-1.98-5.53-4.51-10.86-6.01-16.56-.82-3.11-5.64-1.79-4.82,1.33h0Z"/>
    <g>
      <path class="cls-1" d="m12.45,139.44c.35,0,.67.07.98.2s.57.31.8.54.41.5.54.8.2.63.2.98-.07.67-.2.98-.31.57-.54.8-.49.41-.8.54-.63.2-.98.2h-.08l-5.83,5.83c0,.36-.06.7-.19,1.01s-.3.59-.53.82-.49.42-.8.56-.64.21-1.01.21-.67-.07-.98-.2-.57-.31-.8-.54-.41-.5-.54-.8-.2-.63-.2-.98.07-.7.21-1.01.32-.58.56-.8.51-.4.82-.53.65-.19,1.01-.19l5.83-5.83c0-.36.06-.69.19-1.01s.3-.59.53-.83.49-.42.8-.56.64-.21,1.01-.21Zm0,4.21c.23,0,.44-.04.65-.13s.38-.21.54-.37.27-.33.36-.54.13-.42.13-.65-.05-.47-.15-.69l-1.11,1.11h-.42l-.42-.42v-.42l1.11-1.11c-.22-.1-.45-.15-.69-.15s-.45.04-.65.13-.38.21-.54.36-.28.33-.37.54-.13.42-.13.65c0,.07,0,.13.01.19s.02.12.03.19l-6.4,6.4c-.13-.03-.26-.05-.38-.05-.23,0-.45.04-.66.13s-.38.21-.53.36-.27.33-.36.54-.13.42-.13.66.05.47.15.69l1.11-1.11h.42l.42.42v.42l-1.11,1.11c.22.1.45.15.69.15s.45-.04.66-.13.38-.21.54-.36.27-.33.36-.53.13-.42.13-.66c0-.12-.02-.25-.05-.38l6.4-6.4c.06.01.12.02.19.03s.13.01.19.01Z"/>
      <path class="cls-1" d="m27.01,147c0,2.36-1.06,3.54-3.19,3.54s-3.06-1.13-3.06-3.4v-5.14h.98v5.07c0,1.72.73,2.58,2.18,2.58s2.1-.83,2.1-2.5v-5.16h.98v5Z"/>
      <path class="cls-1" d="m33.96,150.39h-.96v-3.42c0-1.27-.46-1.91-1.39-1.91-.48,0-.88.18-1.19.54s-.47.82-.47,1.37v3.42h-.96v-6h.96v1h.02c.45-.76,1.11-1.14,1.97-1.14.66,0,1.16.21,1.51.64s.52,1.04.52,1.84v3.67Z"/>
      <path class="cls-1" d="m40.89,150.39h-.96v-1.02h-.02c-.45.77-1.13,1.16-2.06,1.16-.75,0-1.36-.27-1.81-.81s-.68-1.27-.68-2.19c0-.99.25-1.79.75-2.38s1.17-.9,2-.9,1.42.32,1.8.97h.02v-3.71h.96v8.88Zm-.96-2.71v-.88c0-.48-.16-.89-.48-1.23s-.73-.5-1.22-.5c-.59,0-1.05.21-1.38.64s-.5,1.02-.5,1.78c0,.69.16,1.24.48,1.64s.75.6,1.3.6.97-.19,1.3-.58.5-.88.5-1.46Z"/>
      <path class="cls-1" d="m47.66,147.63h-4.24c.02.67.2,1.18.54,1.55s.82.54,1.42.54c.68,0,1.3-.22,1.86-.67v.9c-.53.38-1.22.57-2.09.57s-1.51-.27-2-.82-.73-1.31-.73-2.3c0-.93.26-1.69.79-2.28s1.19-.88,1.97-.88,1.39.25,1.82.76.64,1.21.64,2.12v.5Zm-.98-.81c0-.55-.14-.99-.4-1.29s-.63-.46-1.1-.46-.84.16-1.15.49-.51.75-.59,1.27h3.24Z"/>
      <path class="cls-1" d="m52.24,145.37c-.17-.13-.41-.19-.73-.19-.41,0-.75.19-1.03.58s-.41.91-.41,1.58v3.06h-.96v-6h.96v1.24h.02c.14-.42.35-.75.63-.99s.6-.35.94-.35c.25,0,.44.03.57.08v1Z"/>
      <path class="cls-1" d="m62.42,150.04c-.62.33-1.39.49-2.32.49-1.2,0-2.15-.38-2.87-1.15s-1.08-1.78-1.08-3.03c0-1.34.4-2.43,1.21-3.26s1.83-1.24,3.08-1.24c.8,0,1.46.12,1.98.35v1.05c-.6-.34-1.27-.5-1.99-.5-.96,0-1.75.32-2.35.97s-.9,1.51-.9,2.58.28,1.84.84,2.45,1.3.91,2.21.91c.84,0,1.57-.19,2.19-.56v.96Z"/>
      <path class="cls-1" d="m66.51,150.53c-.89,0-1.59-.28-2.12-.84s-.79-1.3-.79-2.23c0-1.01.28-1.79.83-2.36s1.29-.85,2.23-.85,1.59.28,2.09.83.75,1.31.75,2.29-.27,1.72-.81,2.3-1.27.86-2.18.86Zm.07-5.47c-.62,0-1.11.21-1.46.63s-.54,1-.54,1.74.18,1.27.54,1.68.85.62,1.46.62,1.1-.2,1.43-.6.5-.97.5-1.72-.17-1.33-.5-1.73-.81-.61-1.43-.61Z"/>
      <path class="cls-1" d="m76.01,150.39h-.96v-3.42c0-1.27-.46-1.91-1.39-1.91-.48,0-.88.18-1.19.54s-.47.82-.47,1.37v3.42h-.96v-6h.96v1h.02c.45-.76,1.11-1.14,1.97-1.14.66,0,1.16.21,1.51.64s.52,1.04.52,1.84v3.67Z"/>
      <path class="cls-1" d="m77.46,150.18v-1.03c.52.39,1.1.58,1.73.58.84,0,1.27-.28,1.27-.84,0-.16-.04-.3-.11-.41s-.17-.21-.29-.3-.27-.16-.43-.23-.34-.14-.54-.21c-.27-.11-.5-.21-.7-.32s-.37-.23-.5-.36-.24-.29-.3-.46-.1-.37-.1-.6c0-.28.06-.53.19-.75s.3-.4.52-.54.46-.26.74-.33.56-.11.85-.11c.52,0,.98.09,1.39.27v.97c-.44-.29-.95-.43-1.52-.43-.18,0-.34.02-.49.06s-.27.1-.37.17-.18.16-.24.27-.08.22-.08.34c0,.16.03.29.08.39s.14.2.25.28.24.16.4.22.33.14.53.22c.27.1.5.21.71.31s.39.23.54.36.26.29.34.47.12.38.12.63c0,.3-.07.55-.2.77s-.31.4-.52.54-.47.25-.76.32-.58.11-.9.11c-.62,0-1.15-.12-1.61-.36Z"/>
      <path class="cls-1" d="m85.7,150.34c-.23.12-.53.19-.9.19-1.05,0-1.58-.59-1.58-1.76v-3.55h-1.03v-.82h1.03v-1.46l.96-.31v1.78h1.51v.82h-1.51v3.38c0,.4.07.69.21.86s.36.26.68.26c.24,0,.45-.07.63-.2v.82Z"/>
      <path class="cls-1" d="m90.11,145.37c-.17-.13-.41-.19-.73-.19-.41,0-.75.19-1.03.58s-.41.91-.41,1.58v3.06h-.96v-6h.96v1.24h.02c.14-.42.35-.75.63-.99s.6-.35.94-.35c.25,0,.44.03.57.08v1Z"/>
      <path class="cls-1" d="m96.01,150.39h-.96v-.95h-.02c-.4.73-1.02,1.09-1.85,1.09-1.43,0-2.14-.85-2.14-2.55v-3.59h.96v3.43c0,1.27.48,1.9,1.45,1.9.47,0,.85-.17,1.16-.52s.45-.8.45-1.36v-3.46h.96v6Z"/>
      <path class="cls-1" d="m102.04,150.12c-.46.28-1.01.42-1.64.42-.86,0-1.55-.28-2.07-.83s-.79-1.28-.79-2.17c0-.99.28-1.78.85-2.38s1.32-.9,2.27-.9c.53,0,.99.1,1.39.29v.98c-.45-.31-.92-.47-1.43-.47-.61,0-1.12.22-1.51.66s-.59,1.02-.59,1.73.18,1.26.55,1.66.86.61,1.49.61c.52,0,1.02-.17,1.48-.52v.91Z"/>
      <path class="cls-1" d="m106.27,150.34c-.23.12-.53.19-.9.19-1.05,0-1.58-.59-1.58-1.76v-3.55h-1.03v-.82h1.03v-1.46l.96-.31v1.78h1.51v.82h-1.51v3.38c0,.4.07.69.21.86s.36.26.68.26c.24,0,.45-.07.63-.2v.82Z"/>
      <path class="cls-1" d="m108.05,142.87c-.17,0-.32-.06-.44-.18s-.18-.27-.18-.45.06-.33.18-.45.27-.18.44-.18.33.06.45.18.18.27.18.45-.06.32-.18.44-.27.18-.45.18Zm.47,7.52h-.96v-6h.96v6Z"/>
      <path class="cls-1" d="m112.97,150.53c-.89,0-1.59-.28-2.12-.84s-.79-1.3-.79-2.23c0-1.01.28-1.79.83-2.36s1.29-.85,2.23-.85,1.59.28,2.09.83.75,1.31.75,2.29-.27,1.72-.81,2.3-1.27.86-2.18.86Zm.07-5.47c-.62,0-1.11.21-1.46.63s-.54,1-.54,1.74.18,1.27.54,1.68.85.62,1.46.62,1.1-.2,1.43-.6.5-.97.5-1.72-.17-1.33-.5-1.73-.81-.61-1.43-.61Z"/>
      <path class="cls-1" d="m122.47,150.39h-.96v-3.42c0-1.27-.46-1.91-1.39-1.91-.48,0-.88.18-1.19.54s-.47.82-.47,1.37v3.42h-.96v-6h.96v1h.02c.45-.76,1.11-1.14,1.97-1.14.66,0,1.16.21,1.51.64s.52,1.04.52,1.84v3.67Z"/>
      <path class="cls-1" d="m125.02,150.5c-.18,0-.33-.06-.46-.19s-.19-.28-.19-.46.06-.33.19-.46.28-.19.46-.19.33.06.46.19.19.28.19.46-.06.33-.19.46-.28.19-.46.19Zm.49-8.51l-.11,6.04h-.79l-.11-6.04h1.01Z"/>
      <path class="cls-1" d="m136.83,150.04c-.62.33-1.39.49-2.32.49-1.2,0-2.15-.38-2.87-1.15s-1.08-1.78-1.08-3.03c0-1.34.4-2.43,1.21-3.26s1.83-1.24,3.08-1.24c.8,0,1.46.12,1.98.35v1.05c-.6-.34-1.27-.5-1.99-.5-.96,0-1.75.32-2.35.97s-.9,1.51-.9,2.58.28,1.84.84,2.45,1.3.91,2.21.91c.84,0,1.57-.19,2.19-.56v.96Z"/>
      <path class="cls-1" d="m140.92,150.53c-.89,0-1.59-.28-2.12-.84s-.79-1.3-.79-2.23c0-1.01.28-1.79.83-2.36s1.29-.85,2.23-.85,1.59.28,2.09.83.75,1.31.75,2.29-.27,1.72-.81,2.3-1.27.86-2.18.86Zm.07-5.47c-.62,0-1.11.21-1.46.63s-.54,1-.54,1.74.18,1.27.54,1.68.85.62,1.46.62,1.1-.2,1.43-.6.5-.97.5-1.72-.17-1.33-.5-1.73-.81-.61-1.43-.61Z"/>
      <path class="cls-1" d="m153.96,150.39h-.96v-3.45c0-.66-.1-1.14-.31-1.44s-.55-.45-1.03-.45c-.41,0-.76.19-1.05.56s-.43.82-.43,1.35v3.42h-.96v-3.56c0-1.18-.46-1.77-1.37-1.77-.42,0-.77.18-1.04.53s-.41.81-.41,1.38v3.42h-.96v-6h.96v.95h.02c.43-.73,1.05-1.09,1.86-1.09.41,0,.77.11,1.07.34s.51.53.63.9c.45-.83,1.11-1.24,1.99-1.24,1.32,0,1.98.81,1.98,2.44v3.7Z"/>
      <path class="cls-1" d="m160.6,147.63h-4.24c.02.67.2,1.18.54,1.55s.82.54,1.42.54c.68,0,1.3-.22,1.86-.67v.9c-.53.38-1.22.57-2.09.57s-1.51-.27-2-.82-.73-1.31-.73-2.3c0-.93.26-1.69.79-2.28s1.19-.88,1.97-.88,1.39.25,1.82.76.64,1.21.64,2.12v.5Zm-.98-.81c0-.55-.14-.99-.4-1.29s-.63-.46-1.1-.46-.84.16-1.15.49-.51.75-.59,1.27h3.24Z"/>
      <path class="cls-1" d="m166.32,149.53h-.02v.87h-.96v-8.88h.96v3.94h.02c.47-.8,1.16-1.2,2.07-1.2.77,0,1.37.27,1.81.81s.65,1.26.65,2.16c0,1-.24,1.81-.73,2.41s-1.16.91-2,.91c-.79,0-1.39-.34-1.8-1.01Zm-.02-2.42v.84c0,.5.16.92.48,1.26s.73.52,1.23.52c.58,0,1.04-.22,1.37-.67s.5-1.06.5-1.86c0-.67-.15-1.19-.46-1.57s-.73-.57-1.25-.57c-.56,0-1.01.19-1.35.58s-.51.88-.51,1.46Z"/>
      <path class="cls-1" d="m176.53,150.39h-.96v-.94h-.02c-.42.72-1.03,1.08-1.85,1.08-.6,0-1.07-.16-1.4-.47s-.51-.74-.51-1.26c0-1.12.66-1.77,1.98-1.96l1.8-.25c0-1.02-.41-1.53-1.24-1.53-.72,0-1.38.25-1.96.74v-.98c.59-.38,1.27-.56,2.04-.56,1.41,0,2.12.75,2.12,2.24v3.9Zm-.96-3.04l-1.45.2c-.45.06-.78.17-1.01.33s-.34.44-.34.84c0,.29.1.53.31.72s.49.28.83.28c.48,0,.87-.17,1.18-.5s.47-.76.47-1.27v-.6Z"/>
      <path class="cls-1" d="m182.43,150.12c-.46.28-1.01.42-1.64.42-.86,0-1.55-.28-2.07-.83s-.79-1.28-.79-2.17c0-.99.28-1.78.85-2.38s1.32-.9,2.27-.9c.53,0,.99.1,1.39.29v.98c-.45-.31-.92-.47-1.43-.47-.61,0-1.12.22-1.51.66s-.59,1.02-.59,1.73.18,1.26.55,1.66.86.61,1.49.61c.52,0,1.02-.17,1.48-.52v.91Z"/>
      <path class="cls-1" d="m188.87,150.39h-1.35l-2.65-2.88h-.02v2.88h-.96v-8.88h.96v5.63h.02l2.52-2.75h1.26l-2.78,2.89,3,3.11Z"/>
      <path class="cls-1" d="m192.77,150.18v-1.03c.52.39,1.1.58,1.73.58.84,0,1.27-.28,1.27-.84,0-.16-.04-.3-.11-.41s-.17-.21-.29-.3-.27-.16-.43-.23-.34-.14-.54-.21c-.27-.11-.5-.21-.7-.32s-.37-.23-.5-.36-.24-.29-.3-.46-.1-.37-.1-.6c0-.28.06-.53.19-.75s.3-.4.52-.54.46-.26.74-.33.56-.11.85-.11c.52,0,.98.09,1.39.27v.97c-.44-.29-.95-.43-1.52-.43-.18,0-.34.02-.49.06s-.27.1-.37.17-.18.16-.24.27-.08.22-.08.34c0,.16.03.29.08.39s.14.2.25.28.24.16.4.22.33.14.53.22c.27.1.5.21.71.31s.39.23.54.36.26.29.34.47.12.38.12.63c0,.3-.07.55-.2.77s-.31.4-.52.54-.47.25-.76.32-.58.11-.9.11c-.62,0-1.15-.12-1.61-.36Z"/>
      <path class="cls-1" d="m200.74,150.53c-.89,0-1.59-.28-2.12-.84s-.79-1.3-.79-2.23c0-1.01.28-1.79.83-2.36s1.29-.85,2.23-.85,1.59.28,2.09.83.75,1.31.75,2.29-.27,1.72-.81,2.3-1.27.86-2.18.86Zm.07-5.47c-.62,0-1.11.21-1.46.63s-.54,1-.54,1.74.18,1.27.54,1.68.85.62,1.46.62,1.1-.2,1.43-.6.5-.97.5-1.72-.17-1.33-.5-1.73-.81-.61-1.43-.61Z"/>
      <path class="cls-1" d="m207.77,150.53c-.89,0-1.59-.28-2.12-.84s-.79-1.3-.79-2.23c0-1.01.28-1.79.83-2.36s1.29-.85,2.23-.85,1.59.28,2.09.83.75,1.31.75,2.29-.27,1.72-.81,2.3-1.27.86-2.18.86Zm.07-5.47c-.62,0-1.11.21-1.46.63s-.54,1-.54,1.74.18,1.27.54,1.68.85.62,1.46.62,1.1-.2,1.43-.6.5-.97.5-1.72-.17-1.33-.5-1.73-.81-.61-1.43-.61Z"/>
      <path class="cls-1" d="m217.27,150.39h-.96v-3.42c0-1.27-.46-1.91-1.39-1.91-.48,0-.88.18-1.19.54s-.47.82-.47,1.37v3.42h-.96v-6h.96v1h.02c.45-.76,1.11-1.14,1.97-1.14.66,0,1.16.21,1.51.64s.52,1.04.52,1.84v3.67Z"/>
      <path class="cls-1" d="m222.7,145.57c-.18,0-.33-.06-.46-.19s-.19-.28-.19-.46.06-.33.19-.46.28-.19.46-.19.34.06.47.19.19.28.19.46-.06.33-.19.46-.29.19-.47.19Zm0,4.96c-.18,0-.33-.06-.46-.19s-.19-.28-.19-.46.06-.33.19-.47.28-.2.46-.2.34.07.47.2.19.29.19.47-.06.33-.19.46-.29.19-.47.19Z"/>
      <path class="cls-1" d="m224.99,152.3h-.86c1.22-1.46,1.83-3.17,1.83-5.13s-.61-3.7-1.84-5.19h.87c1.22,1.43,1.83,3.16,1.83,5.2s-.61,3.73-1.83,5.12Z"/>
    </g>
  </g>
</svg>