<?xml version="1.0" encoding="UTF-8"?>
<svg id="Layer_1" data-name="Layer 1" xmlns="http://www.w3.org/2000/svg" viewBox="0 0 77.38 34.7">
  <defs>
    <style>
      .cls-1 {
        fill: #fff;
      }
    </style>
  </defs>
  <path class="cls-1" d="m.08,1.52c1.07,2.94,1.14,5.81.6,8.87-.51,2.86-.74,5.44.21,8.24.42,1.23.94,2.43,1.25,3.7.33,1.35.2,2.61-.12,3.94-.6,2.51-1.32,4.84-.23,7.32.64,1.47,2.8.2,2.16-1.26-.98-2.24.58-5.06.84-7.33.31-2.65-.82-4.97-1.61-7.43-.92-2.86-.18-5.46.21-8.33s.08-5.68-.89-8.38C1.95-.65-.47,0,.08,1.52H.08Z"/>
  <path class="cls-1" d="m5.27,24.44c.02-.8.1-1.58.28-2.36.09-.4.19-.81.33-1.19.02-.05.05-.25.12-.27-.03.01-.07.05-.01.06.34.08.58.75.71,1.02.31.68.54,1.39.74,2.11.83,2.98.89,6.09.95,9.15.03,1.61,2.53,1.61,2.5,0-.09-4.08-.22-8.26-1.83-12.07-.37-.86-.8-1.7-1.6-2.24s-1.92-.66-2.75-.16c-.94.56-1.24,1.69-1.49,2.68-.26,1.07-.4,2.17-.43,3.27-.04,1.61,2.46,1.61,2.5,0h0Z"/>
  <path class="cls-1" d="m16.32,30.71c-.36-2.54-.56-5.1-.61-7.67-.02-.89-.12-2.06.55-2.76.42-.44,1.1-.62,1.69-.53.85.14,1.31.95,1.59,1.69.42,1.13.65,2.34.9,3.52s.46,2.41.61,3.63c.08.62.14,1.24.19,1.87.02.28.09.59.05.87s0,.02.02,0c-.09.11-.26.19-.38.27-.9.55-2.1.86-3.12.42-.72-.31-1.45-1.16-1.33-2,.1-.67-.17-1.34-.87-1.54-.59-.16-1.44.2-1.54.87-.48,3.2,2.32,5.69,5.45,5.32,1.4-.16,3.31-.84,4-2.18.41-.79.24-1.72.16-2.56-.09-.91-.2-1.82-.33-2.73-.24-1.68-.57-3.35-.99-4.99-.36-1.44-.84-2.97-2.01-3.97-2.1-1.8-5.57-1.04-6.68,1.51-.75,1.71-.48,3.8-.38,5.61.11,2.02.33,4.02.61,6.02.1.67.95,1.04,1.54.87.72-.2.97-.87.87-1.54h0Z"/>
  <path class="cls-1" d="m27.23,31.04l-.17-6.28-.08-3.06c-.01-.51-.03-1.02-.04-1.53,0-.2-.14-1.1.07-1.26.34-.28.7.5.76.75.21.82.03,1.67.32,2.48.26.72.69,1.34,1.14,1.96.36.51.77,1.02.76,1.67-.02,1.37,2.21,1.75,2.46.33.35-2.03-.06-3.95-.25-5.97-.07-.75-.11-1.53.01-2.28.1-.63.34-1.69.93-2.06l-.96.13.21.07-.75-.57c.82,1.07,1.25,2.53,1.64,3.81.41,1.37.72,2.76,1.02,4.16.32,1.47.61,2.97.24,4.46-.33,1.36-.87,2.64-.75,4.07.13,1.59,2.63,1.61,2.5,0-.11-1.39.55-2.64.79-3.99.27-1.53.08-3.06-.23-4.56-.56-2.74-1.19-5.53-2.41-8.07-.27-.56-.55-1.25-1.09-1.59-.65-.41-1.38-.24-1.92.24-.91.8-1.43,2.08-1.64,3.24-.5,2.77.7,5.5.23,8.25l2.46.33c.02-1.03-.4-1.92-.97-2.75-.54-.78-1.13-1.44-1.17-2.43-.06-1.17-.18-2.33-1.03-3.23-.71-.76-1.8-1.16-2.83-.91-2.68.66-2.03,4.05-1.98,6.1l.23,8.49c.04,1.61,2.54,1.61,2.5,0h0Z"/>
  <path class="cls-1" d="m40.78,22.79c1.75.29,3.54.25,5.25-.27,1.4-.43,2.85-1.18,3.47-2.6,1.51-3.5-2.8-6.01-5.78-5.77-3.23.26-5.17,3.31-5.43,6.3-.16,1.84.25,3.74.73,5.51.41,1.52,1,3.06,2.11,4.21,2.35,2.41,8.13,3.52,9.25-.7.41-1.56-2-2.22-2.41-.66-.56,2.11-4,.65-4.98-.32-.72-.7-1.1-1.65-1.39-2.6-.35-1.14-.64-2.33-.77-3.51-.21-1.91.08-4.26,1.91-5.34,1.23-.73,4.42-.35,4.55,1.5.06.94-1.19,1.37-1.91,1.59-1.26.39-2.61.49-3.92.27-.66-.11-1.35.18-1.54.87-.16.6.2,1.43.87,1.54h0Z"/>
  <path class="cls-1" d="m58.88,6.21l-4.46,11.61c-.3.78.46,1.58,1.21,1.58,3.77.02,7.54.04,11.31.06l5.66.03c.94,0,1.89.04,2.83.02.82-.02,1.54-.1,1.87-.97.6-1.6-1.71-2.67-2.73-3.41-1.51-1.1-3.03-2.21-4.54-3.31-3.03-2.21-6.06-4.41-9.09-6.62-1.3-.95-2.55,1.22-1.26,2.16,2.6,1.89,5.19,3.78,7.79,5.67,1.3.95,2.6,1.89,3.89,2.84.59.43,1.19.87,1.78,1.3.47.34,1.7.95,1.95,1.49l-.13-.96-.07.19.87-.87c-.76.17-1.78,0-2.55,0h-2.42c-1.68-.02-3.37-.03-5.05-.04-3.37-.02-6.73-.04-10.1-.06l1.21,1.58,4.46-11.61c.58-1.5-1.84-2.15-2.41-.66h0Z"/>
  <path class="cls-1" d="m57.79,18.88l.33,8.96.08,2.09c.03.7,0,1.47.51,2.01.86.93,2.51.67,3.64.67,3.02.01,6.05-.15,9.05-.48,1.23-.13,2.81-.07,3.68-1.1s.46-2.65.26-3.87c-.53-3.22-1.49-6.38-1.13-9.67.07-.67-.63-1.25-1.25-1.25-.74,0-1.18.58-1.25,1.25-.27,2.42.14,4.83.61,7.19.24,1.19.49,2.38.67,3.57.04.26.08.52.1.78,0,.1,0,.22.02.32.02.13-.09.23.03.14.19-.14-.28-.04-.31-.04-.33.05-.66.08-1,.12-2.55.29-5.12.47-7.69.52-.6.01-1.21.02-1.81.01-.3,0-.6,0-.91,0-.28,0-.8-.12-1.06-.02-.17.07-.43-.23.08.22.44.39.19.2.24-.07s-.02-.62-.03-.9l-.07-1.94-.31-8.51c-.06-1.6-2.56-1.61-2.5,0h0Z"/>
  <path class="cls-1" d="m67.17,30.02c-.04-.21-.08-.43-.11-.65l.04.33c-.11-.84-.11-1.7,0-2.54l-.04.33c.03-.22.07-.43.11-.65.07-.33.05-.66-.13-.96-.15-.26-.45-.51-.75-.57-.62-.14-1.4.19-1.54.87-.31,1.5-.31,3,0,4.49.13.64.93,1.07,1.54.87.68-.22,1.01-.85.87-1.54h0Z"/>
  <path class="cls-1" d="m70.15,25.34c1.61,0,1.61-2.5,0-2.5s-1.61,2.5,0,2.5h0Z"/>
</svg>