<?xml version="1.0" encoding="UTF-8"?>
<svg xmlns="http://www.w3.org/2000/svg" viewBox="0 0 113.64 92.88">
  <defs>
    <style>
      .cls-1 {
        fill: #fff;
      }

      .cls-2 {
        fill: #231f20;
      }
    </style>
  </defs>
  <g id="Layer_2" data-name="Layer 2">
    <path class="cls-1" d="m39.65,29.96c-6.04,2.72-10.61,8.13-13.26,14.1-2.97,6.68-4.4,14.26-3.18,21.53,2.62,15.61,20.5,20.61,33.85,22.72,4.21.67,8.47,1.28,12.71.62,3.78-.59,7.18-2.61,9.78-5.38,4.43-4.71,7.34-11.04,8.53-17.37s1.01-12.62-.98-18.57c-2.18-6.51-6.28-11.85-11.98-15.68-6.58-4.42-14.72-7.75-22.7-8.03-6.79-.24-14.16,2.27-18.62,7.58-1.13,1.34-2.11,2.76-2.81,4.37-.79,1.79-.52,3.89,1.3,4.96,1.54.9,4.17.5,4.96-1.3.29-.66.61-1.3.99-1.91.19-.3.39-.6.6-.89-.34.47.12-.13.21-.24.98-1.14,1.92-1.93,2.76-2.49,2.33-1.54,4.38-2.35,7.42-2.75-.6.08.02,0,.12,0,.42-.02.84-.06,1.27-.08.9-.03,1.81-.02,2.71.05,1.63.11,3.12.41,4.82.86,3.28.87,6.26,2.16,9.25,3.73,2.8,1.48,5.4,3.09,7.6,5.33.44.44.86.9,1.26,1.38.18.22.36.43.53.65-.45-.59.21.3.24.35.77,1.1,1.45,2.26,2.04,3.47.15.3.29.61.43.91.45.99-.22-.65.15.38.19.53.39,1.05.56,1.59.42,1.29.74,2.62.98,3.95.06.34.11.67.16,1.01-.12-.8.03.32.04.4.06.57.1,1.14.13,1.71.07,1.38.06,2.77-.04,4.15-.05.69-.11,1.39-.21,2.07.09-.68-.02.07-.05.24-.05.29-.1.57-.15.86-.26,1.37-.6,2.72-1.02,4.05-.21.66-.44,1.32-.69,1.97-.02.04-.45,1.1-.16.42-.09.21-.18.42-.28.63-.57,1.26-1.22,2.48-1.95,3.66-1.44,2.32-3.2,4.49-5.44,5.77-.79.45-.7.43-1.54.69-.76.24-1.51.41-2.11.47-1.8.18-3.64.06-5.44-.13-6.52-.69-13.29-2.14-19.46-4.53-4.69-1.82-9.2-4.75-11.57-9.33-1.51-2.92-1.63-6.56-1.34-10.05.24-2.84,1.02-6.2,2.12-9.14.11-.29.22-.58.34-.86.09-.23.09-.23,0,.01.1-.23.2-.45.3-.67.36-.78.75-1.54,1.18-2.29.36-.64.75-1.26,1.15-1.86.2-.3.42-.6.63-.89.26-.34.29-.39.09-.13.15-.19.3-.37.46-.56.46-.55.95-1.08,1.46-1.58.26-.25.52-.5.78-.74.09-.08,1.11-.93.65-.57,1.23-.96,2.61-1.73,4.03-2.37,1.79-.8,2.21-3.4,1.3-4.96-1.07-1.84-3.17-2.11-4.96-1.3h0Z"/>
    <path class="cls-1" d="m7.26,17.19c.1-1.14.22-2.28.37-3.42.09-.71-.05.33.02-.12.04-.26.07-.52.11-.77.09-.57.18-1.13.27-1.7.38-2.21.85-4.4,1.39-6.58l-4.46,2.53c4.5,1.88,9.19,3.27,13.99,4.15,1.86.34,4-.51,4.46-2.53.4-1.78-.54-4.09-2.53-4.46C16.08,3.42,11.39,2.03,6.89.15c-.77-.32-2.11-.07-2.79.37-.78.51-1.43,1.24-1.67,2.17C1.23,7.44.44,12.3.01,17.19c-.17,1.89,1.79,3.71,3.62,3.62,2.11-.09,3.45-1.6,3.62-3.62h0Z"/>
    <path class="cls-1" d="m34.01,55.25c.46.81.89,1.65,1.45,2.39.64.85,1.14,1.41,2.03,2.03.82.57,1.75.78,2.73.87,1.65.16,3.47-.72,4.52-1.97.72-.85,1.1-1.59,1.5-2.65.17-.45.28-.92.39-1.39.22-.94.13-1.95-.37-2.79-.44-.75-1.3-1.47-2.17-1.67-.93-.21-1.97-.17-2.79.37-.78.5-1.45,1.24-1.67,2.17-.13.54-.26,1.07-.47,1.58l.37-.87c-.13.3-.29.59-.49.86l.57-.73c-.14.17-.29.32-.45.45l.73-.57c-.17.13-.35.24-.54.32l.87-.37c-.17.07-.34.11-.52.14l.96-.13c-.15.01-.29.01-.44,0l.96.13c-.16-.03-.32-.07-.47-.13l.87.37c-.18-.08-.34-.18-.49-.3l.73.57c-.25-.2-.46-.43-.66-.68l.57.73c-.56-.74-.99-1.59-1.45-2.39s-1.3-1.43-2.17-1.67-2.02-.13-2.79.37-1.46,1.24-1.67,2.17-.13,1.93.37,2.79h0Z"/>
  </g>
  <g id="Layer_1" data-name="Layer 1">
    <path class="cls-2" d="m40.25,31c-5.88,2.65-10.27,7.88-12.86,13.69-2.84,6.38-4.23,13.72-3.06,20.66,2.55,15.19,20.12,19.89,33.07,21.94,4,.63,8.08,1.23,12.11.62,3.61-.55,6.8-2.46,9.29-5.09,4.31-4.57,7.08-10.74,8.24-16.87s.95-12.21-.98-17.97c-2.08-6.22-6.02-11.35-11.46-15-6.41-4.31-14.35-7.61-22.14-7.88-6.53-.23-13.54,2.15-17.83,7.25-1.07,1.27-1.97,2.63-2.64,4.14-.54,1.23-.36,2.68.9,3.42,1.06.62,2.87.35,3.42-.9,2.22-5.05,7.28-8.11,12.65-8.8,6.62-.84,13.29,1.64,19.04,4.68,5.18,2.73,9.47,6.27,12.08,11.59,2.22,4.52,2.92,9.69,2.58,14.68s-1.96,10.13-4.65,14.47c-1.49,2.41-3.34,4.74-5.84,6.17-2.93,1.68-6.41,1.53-9.65,1.19-6.67-.7-13.49-2.14-19.76-4.57-4.95-1.92-9.82-4.95-12.24-9.85-3-6.04-1.6-14,.67-20.05,2.13-5.67,5.98-10.67,11.58-13.19,1.23-.55,1.53-2.34.9-3.42-.74-1.27-2.18-1.45-3.42-.9h0Z"/>
    <path class="cls-2" d="m11.41,92.17c2.76-2.63,5.89-4.75,9.06-6.83,3.33-2.19,6.61-4.43,9.77-6.87,6.51-5.02,12.64-10.53,19.23-15.44s13.74-8.95,20.75-13.22,14.2-9.42,20.94-14.66c7.44-5.79,15.09-11.52,21.75-18.21,2.27-2.28-1.26-5.82-3.54-3.54-5.89,5.91-12.57,10.99-19.11,16.15s-13.4,10.27-20.58,14.73-14.19,8.28-20.87,13.07-12.94,10.34-19.42,15.49c-3.45,2.74-7.02,5.28-10.71,7.7s-7.53,4.98-10.8,8.1c-2.33,2.22,1.21,5.76,3.54,3.54h0Z"/>
    <path class="cls-2" d="m67.72,57.66c.61,1.01,1.39,1.87,2.34,2.55,1.2.87,2.92,1.08,4.21.24.57-.37.97-.82,1.38-1.34.28-.36.55-.72.75-1.14.53-1.06.8-2.09.9-3.26.05-.61-.31-1.35-.73-1.77s-1.15-.76-1.77-.73-1.32.24-1.77.73-.68,1.08-.73,1.77c0,.11-.02.21-.03.32l.09-.66c-.07.48-.2.94-.39,1.39l.25-.6c-.18.42-.41.81-.69,1.18l.39-.51c-.18.23-.38.46-.61.65l.51-.39c-.09.07-.18.12-.28.17l.6-.25c-.08.03-.14.05-.22.06l.66-.09c-.1.01-.2.01-.3,0l.66.09c-.13-.02-.25-.05-.38-.1l.6.25c-.2-.09-.39-.2-.56-.33l.51.39c-.38-.29-.71-.65-1.01-1.02l.39.51c-.16-.2-.3-.42-.43-.64-.33-.54-.88-.98-1.49-1.15s-1.4-.09-1.93.25-1,.86-1.15,1.49-.1,1.34.25,1.93h0Z"/>
    <path class="cls-2" d="m37.32,53.96c.04.17.09.33.16.48.13.32.25.64.43.94.25.41.56.82.91,1.15.91.85,2.02,1.37,3.27,1.47.71.06,1.4-.15,2.03-.47s1.11-.85,1.54-1.43c.54-.73.77-1.65.92-2.53.1-.33.12-.66.04-1-.02-.33-.11-.64-.3-.93-.3-.52-.9-1.01-1.49-1.15-.64-.15-1.36-.11-1.93.25-.52.33-1.04.86-1.15,1.49-.08.47-.17.95-.36,1.39l.25-.6c-.09.19-.19.37-.31.54l.39-.51c-.11.14-.23.26-.37.36l.51-.39c-.1.08-.21.14-.33.19l.6-.25c-.12.05-.24.08-.36.1l.66-.09c-.12.01-.23.01-.35,0l.66.09c-.23-.03-.44-.1-.65-.18l.6.25c-.22-.09-.42-.21-.6-.35l.51.39c-.22-.17-.41-.36-.58-.59l.39.51c-.14-.19-.26-.39-.35-.6l.25.6c-.07-.16-.12-.32-.16-.48-.14-.6-.63-1.19-1.15-1.49s-1.33-.45-1.93-.25-1.19.57-1.49,1.15c-.32.61-.41,1.25-.25,1.93h0Z"/>
    <path class="cls-2" d="m48.99,68.69c.51,3.04,3.06,6.2,6.19,6.78,3.6.67,6.99-2.21,8.46-5.3.56-1.18.37-2.75-.9-3.42-1.11-.59-2.82-.36-3.42.9-.07.16-.67,1.43-.83,1.4.21-.27.26-.33.14-.18-.05.06-.1.13-.16.19-.07.08-.14.16-.22.24-.18.2-.38.39-.58.57-.15.13-.52.32,0,.02-.09.05-.18.13-.26.19-.24.17-.49.31-.75.45-.49.27.48-.12-.05.02-.05.01-.31.05-.34.09.35-.03.43-.04.23-.03-.09,0-.17,0-.26,0-.45.02.36.11.08.02-.13-.04-.27-.07-.4-.11-.43-.13.3.18.05.02-.23-.15-.47-.28-.7-.43-.25-.15.46.41.08.06-.09-.09-.19-.17-.28-.26-.18-.18-.35-.37-.52-.56-.2-.22.34.51.07.08-.07-.11-.14-.21-.21-.32-.13-.22-.24-.45-.36-.67-.14-.27.18.53.05.1-.04-.12-.08-.24-.12-.36-.08-.27-.14-.54-.19-.82-.22-1.29-1.88-2.13-3.08-1.75-1.4.45-1.98,1.69-1.75,3.08h0Z"/>
  </g>
</svg>